<?xml version="1.0" encoding="UTF-8" standalone="no"?>
<!-- Created with Inkscape (http://www.inkscape.org/) -->

<svg
   version="1.1"
   id="svg1"
   width="1151"
   height="424"
   viewBox="0 0 1151 424"
   sodipodi:docname="logo_2.svg"
   inkscape:version="1.4 (1:1.4+202410161351+e7c3feb100)"
   inkscape:export-filename="logo_2.svg"
   inkscape:export-xdpi="96"
   inkscape:export-ydpi="96"
   xmlns:inkscape="http://www.inkscape.org/namespaces/inkscape"
   xmlns:sodipodi="http://sodipodi.sourceforge.net/DTD/sodipodi-0.dtd"
   xmlns="http://www.w3.org/2000/svg"
   xmlns:svg="http://www.w3.org/2000/svg">
  <defs
     id="defs1" />
  <sodipodi:namedview
     id="namedview1"
     pagecolor="#ffffff"
     bordercolor="#000000"
     borderopacity="0.25"
     inkscape:showpageshadow="2"
     inkscape:pageopacity="0.0"
     inkscape:pagecheckerboard="0"
     inkscape:deskcolor="#d1d1d1"
     inkscape:zoom="1"
     inkscape:cx="524.5"
     inkscape:cy="391.5"
     inkscape:window-width="1887"
     inkscape:window-height="1531"
     inkscape:window-x="66"
     inkscape:window-y="32"
     inkscape:window-maximized="0"
     inkscape:current-layer="g1"
     inkscape:export-bgcolor="#ffffff00" />
  <g
     inkscape:groupmode="layer"
     inkscape:label="Image"
     id="g1">
    <g
       id="g156"
       transform="translate(-2,-230)">
      <g
         id="g155">
        <g
           id="g106"
           transform="translate(263.6342,-259.56263)">
          <path
             style="fill:#000000"
             d="m 520.5,730 v 41.25 41.25 l 8.5,-0.30469 c 4.675,-0.16781 9.0625,-0.49132 9.75,-0.71875 0.90383,-0.29899 1.25,-3.6074 1.25,-11.94531 V 788 l 3.75,-0.0117 c 2.0625,-0.006 5.325,-0.25041 7.25,-0.54297 l 3.5,-0.53125 7.5,13.07422 c 7.24303,12.62532 7.59851,13.05518 10.375,12.54297 1.58125,-0.29171 6.19375,-0.53125 10.25,-0.53125 5.24073,0 7.37133,-0.36174 7.36133,-1.25 -0.008,-0.6875 -3.60762,-6.58813 -8,-13.11328 C 577.59395,791.11148 574,785.19688 574,784.49414 c 0,-0.70273 1.12971,-1.55988 2.50977,-1.90625 3.18152,-0.79851 7.88277,-7.24421 10.05468,-13.7832 2.61234,-7.86503 1.63575,-19.32209 -2.17578,-25.51563 -3.73536,-6.06976 -10.47334,-10.62912 -17.92187,-12.125 -3.26318,-0.65534 -14.58507,-1.16398 -25.88282,-1.16406 z m 19.5,18 h 9.53125 c 10.45917,0 15.20791,1.36237 17.83789,5.11719 3.30828,4.72324 1.57648,12.82398 -3.27734,15.33398 C 561.91356,769.57759 558.05409,770 549.91797,770 h -11.17969 l 0.61914,-3.75 c 0.34091,-2.0625 0.62486,-7.0125 0.63086,-11 z"
             id="path105" />
          <path
             style="fill:#000000"
             d="m 446.41211,729.92969 -2.57813,6.28515 c -5.8786,14.32989 -25.12617,57.91354 -29.1621,66.03516 l -4.34766,8.75 10.08789,-0.002 H 430.5 l 3.37109,-7.5 3.37305,-7.498 h 17.80469 17.80664 l 2.49805,5.2832 c 1.37441,2.90527 2.81994,6.56329 3.21289,8.12891 l 0.71484,2.8457 9.38867,-0.49023 c 5.16344,-0.27008 9.62172,-0.72717 9.9082,-1.01367 0.28652,-0.2865 -1.52693,-5.07482 -4.02929,-10.64258 C 492.04648,794.54357 490,789.78813 490,789.54492 490,789.30172 484.77798,777.4918 478.39453,763.30078 472.01109,749.10993 466.20234,735.925 465.48828,734 l -1.29687,-3.5 -8.89063,-0.28516 z m 8.61133,23.79297 c 0.18804,0.0876 0.34896,0.35811 0.51172,0.77734 0.42705,1.1 2.95694,6.92291 5.62304,12.93945 3.64259,8.22018 4.53724,11.13658 3.59571,11.73438 -1.36531,0.86691 -7.29449,0.83429 -15.4668,-0.0859 l -5.21094,-0.58789 2.3418,-6.67969 c 1.28752,-3.67414 3.68983,-9.52414 5.33984,-13 1.88658,-3.9742 2.70149,-5.36048 3.26563,-5.09765 z"
             id="path104" />
          <path
             style="fill:#000000"
             d="m 654.5,729.55469 c -8.09006,3.1e-4 -11.09848,0.43835 -15.75195,2.29492 -11.41319,4.55348 -20.73323,14.62628 -24.13477,26.08203 -2.19417,7.38954 -2.07494,19.40706 0.26758,26.93359 4.03478,12.96375 15.7738,23.96341 28.86523,27.04883 9.10071,2.14487 20.40944,0.67187 29.49805,-3.84375 2.34076,-1.16299 6.79727,-4.51779 9.90234,-7.45312 l 5.64454,-5.33594 -7.47071,-6.23437 -7.46875,-6.23243 -3.42187,3.99805 c -5.77068,6.74174 -16.69345,9.07334 -24.92969,5.32227 -5.1438,-2.34267 -11.07229,-8.93323 -12.42773,-13.81446 -2.80179,-10.08986 -0.37192,-20.2145 6.24414,-26.02343 8.5842,-7.53703 19.89936,-6.90342 31.37109,1.75781 2.92136,2.20565 5.3125,3.50608 5.3125,2.89062 0,-0.61546 2.51468,-3.57381 5.58789,-6.57422 6.40502,-6.2533 6.43966,-6.07222 -2.41992,-12.61718 -9.26843,-6.84698 -13.33893,-8.19965 -24.66797,-8.19922 z"
             id="path103" />
          <path
             style="fill:#000000"
             d="m 392.00195,729.5 -30.24804,0.33008 c -16.63618,0.18165 -30.34754,0.42956 -30.46875,0.55078 -0.12122,0.12122 -0.34649,18.64779 -0.50196,41.16992 L 330.5,812.5 355,812.23633 c 13.475,-0.14478 27.37704,-0.36978 30.89453,-0.5 L 392.29102,811.5 392.39453,802.25 392.5,793 H 370.20508 347.9082 l 0.29688,-6.75 0.29492,-6.75 18.15625,0.16016 c 20.93606,0.18477 19.30578,1.10538 19.33008,-10.91016 L 386,762 l -18.75,0.002 -18.75,0.002 0.33203,-7.00196 L 349.16406,748 H 370.58203 392 v -9.25 z"
             id="path102" />
          <path
             style="fill:#000000"
             d="m 269.69531,728.92578 c -2.89717,0.10242 -5.67252,0.48589 -8.19531,1.16992 -13.762,3.73144 -22.27576,16.43742 -20.00781,29.86133 1.86055,11.0125 10.18177,16.3592 31.90234,20.49805 4.34173,0.82732 8.95423,2.19785 10.25,3.04687 3.35209,2.19638 3.16495,6.71148 -0.39453,9.53125 -2.40269,1.90338 -3.63406,2.11631 -9.75,1.68946 -8.24117,-0.57517 -17.42488,-3.91566 -21.67383,-7.88477 l -3.02929,-2.83008 -4.64844,5.21094 c -2.55688,2.86565 -5.49954,6.07771 -6.53906,7.13672 -1.8549,1.8896 -1.84559,1.96027 0.5,3.80859 5.10722,4.02459 15.34856,9.17912 21.71874,10.93164 9.95007,2.73738 22.98856,2.13652 29.81055,-1.37304 6.49746,-3.3426 11.98327,-9.70829 13.88477,-16.11133 2.70253,-9.10039 1.33319,-15.64176 -4.62305,-22.10352 -4.9914,-5.41503 -10.89597,-7.94897 -24,-10.30078 C 262.25137,758.93687 260,757.87185 260,754.15625 c 0,-4.06553 1.99794,-6.14373 6.98242,-7.26367 6.73325,-1.51286 19.23084,2.04537 22.95703,6.53515 1.87552,2.25987 2.48951,1.99329 4.33789,-1.88281 0.90642,-1.90079 3.32369,-5.31188 5.3711,-7.57812 4.13619,-4.57827 4.43807,-3.92954 -4.14844,-8.89063 -7.32815,-4.23403 -17.11316,-6.45765 -25.80469,-6.15039 z"
             id="path101" />
          <path
             style="fill:#000000"
             d="m 783.92383,728.73047 -5.21094,0.625 c -2.86669,0.34436 -7.03348,0.62976 -9.25977,0.63476 l -4.04882,0.01 -0.26758,15.23242 c -0.14724,8.37767 -0.3782,15.34305 -0.51367,15.47852 -0.50495,0.50497 -4.49414,0.60158 -18.37305,0.44726 L 732,761 V 745.25 729.5 h -9 -9 l -0.19141,19 c -0.10519,10.45 -0.2177,29.01721 -0.25,41.25977 -0.0479,18.1424 0.18796,22.16502 1.27344,21.75 C 715.56451,811.22971 719.71559,811 724.05664,811 h 7.89258 L 732.22461,795.25 732.5,779.5 h 16 16 l 0.0859,6 c 0.0476,3.3 0.1601,10.3875 0.25,15.75 L 765,811 h 9.47852 9.48046 l -0.0176,-41.13477 z"
             id="path100" />
        </g>
        <g
           id="g105"
           transform="translate(270.75945,-258.54473)">
          <path
             style="fill:#000000"
             d="m 384.44531,589.22266 c -0.57694,0.57698 -0.78747,25.05875 -0.59179,69.13476 0.13104,29.51331 0.30769,32.79522 1.72851,32.25 0.86998,-0.33385 6.04498,-0.60742 11.5,-0.60742 H 407 v -15 -15 l 9.25,0.0137 9.25,0.0117 8.95898,14.55859 c 4.92782,8.00678 9.4093,14.83606 9.95899,15.17579 0.54969,0.33973 5.51853,0.54197 11.04101,0.45117 5.52249,-0.0908 11.55209,-0.1748 13.39844,-0.1875 4.16402,-0.0288 4.08195,-0.27235 -3.82812,-11.40235 -3.36924,-4.74074 -8.10487,-11.96579 -10.52344,-16.05664 l -4.39648,-7.4375 4.28906,-2.51367 c 4.65038,-2.7253 7.96569,-6.58151 11.70703,-13.61328 2.06616,-3.88328 2.3947,-5.87049 2.39453,-14.5 -1.8e-4,-8.91137 -0.30346,-10.61706 -2.78125,-15.66211 -3.34327,-6.80725 -9.00498,-12.15293 -16.59961,-15.67383 -5.47202,-2.53686 -6.38977,-2.62892 -34.9082,-3.51172 -16.10934,-0.49863 -29.50374,-0.69156 -29.76563,-0.42968 z M 408,612 h 12.53125 c 14.10119,0 17.56124,0.94482 21.76563,5.94141 4.59714,5.46342 2.85264,14.29393 -3.66797,18.5664 -1.86028,1.2189 -6.09173,1.7626 -17.20508,2.21289 l -14.73633,0.59766 0.64453,-3.9082 c 0.35512,-2.15006 0.65025,-8.29766 0.65625,-13.66016 z"
             id="path99" />
          <path
             style="fill:#000000"
             d="m 274,588.97656 -0.0957,5.76172 c -0.0525,3.16903 -0.0732,13.86172 -0.0488,23.76172 0.0244,9.9 0.0662,30.15 0.0937,45 l 0.0508,27 38.90039,-0.27344 c 29.68472,-0.20804 38.98697,-0.56345 39.25977,-1.5 0.19664,-0.67505 0.2118,-5.61406 0.0312,-10.97656 L 351.86328,668 H 324.43164 297 l -0.15039,-7.5 c -0.0825,-4.125 -0.195,-8.02776 -0.25,-8.67188 -0.0743,-0.87044 5.86805,-1.10707 23.15039,-0.92382 L 343,651.15039 V 640.57617 630 h -23.35156 -23.35156 l 0.10156,-9.64062 0.10156,-9.64063 27.32422,0.67383 27.32422,0.67578 L 350.82422,600.7832 350.5,589.5 312.25,589.23828 Z"
             id="path98" />
          <path
             style="fill:#000000"
             d="m 521.94531,588.59981 c -0.51992,0.055 -5.66755,0.1675 -11.43945,0.25 L 500.01172,589 l 0.16406,50.5 0.16602,50.5 h 11.68554 11.68555 l 0.68164,-9.03711 c 0.37517,-4.9702 0.411,-15.8827 0.0781,-24.25 -0.33273,-8.3673 -0.23801,-17.13266 0.21093,-19.47851 l 0.81641,-4.26563 5.96289,8.26563 c 3.27978,4.54583 9.194,13.12701 13.14258,19.06835 7.3896,11.11879 10.17132,14.69727 11.42578,14.69727 0.39703,0 1.64622,-2.1375 2.77539,-4.75 1.12916,-2.6125 5.23092,-9.25 9.11524,-14.75 3.88427,-5.5 9.08877,-13.0375 11.56445,-16.75 2.47567,-3.7125 4.66207,-6.75 4.85937,-6.75 0.19731,0 0.13612,13.05 -0.13476,29 l -0.49219,29 H 595.60938 607.5 v -50.49805 -50.5 l -12,0.0176 -12,0.0195 -3.74023,6.23047 c -7.61699,12.68668 -21.32471,34.54873 -23.32422,37.20117 l -2.06446,2.73828 -8.07226,-11.35351 C 541.85902,617.61041 534.77614,607.1 530.55859,600.5 c -4.21755,-6.6 -8.09336,-11.95539 -8.61328,-11.90039 z"
             id="path97" />
          <path
             style="fill:#000000"
             d="m 784.07812,588.59181 c -1.70569,0 -3.97696,0.0888 -6.40429,0.26562 l -8.82617,0.64258 0.0742,36 c 0.0413,19.8 0.36118,42.525 0.71093,50.5 l 0.63672,14.5 11.42774,-0.5 11.42773,-0.5 -0.0918,-28.87695 -0.0898,-28.87696 4.72656,5.87696 c 2.59999,3.2322 7.50579,9.02695 10.90039,12.87695 5.92622,6.72124 16.44072,20.03429 26.26172,33.25 l 4.64453,6.25 8.51172,-0.0156 c 4.68145,-0.008 9.09139,-0.38318 9.79883,-0.83204 1.0265,-0.65129 1.22844,-10.84577 1,-50.48242 L 858.5,589.00195 846.20312,589 H 833.9082 l 0.55078,27.5 c 0.30271,15.125 0.20976,27.47856 -0.20507,27.45312 -0.41484,-0.0254 -2.32891,-2.01674 -4.25391,-4.42578 -2.75618,-3.44922 -40.48215,-47.99125 -42.91602,-50.66992 -0.16065,-0.17681 -1.30012,-0.26562 -3.00586,-0.26562 z"
             id="path96" />
          <path
             style="fill:#000000"
             d="m 208.09766,588.08595 c -9.69053,-0.57249 -19.68776,1.36703 -26.04297,5.3789 -12.67499,8.00137 -17.91646,24.00409 -12.16602,37.14258 4.50431,10.29138 12.35484,15.04865 32.95899,19.9707 14.75954,3.5259 17.20459,5.06129 17.12109,10.75391 -0.045,3.06815 -2.10101,5.40833 -6.28906,7.1582 -4.54702,1.89989 -6.78808,1.89184 -14.20899,-0.041 -6.00321,-1.56364 -13.35648,-5.6761 -19.04101,-10.65234 l -3.08985,-2.70508 -3.91992,5.20117 c -2.15621,2.86004 -5.69052,7.14278 -7.85547,9.51758 l -3.9375,4.3164 2.9375,2.4336 c 7.30478,6.05047 19.80068,11.84426 28.77735,13.34375 13.37669,2.2345 27.72925,0.69614 34.88281,-3.74024 8.79195,-5.45247 14.78792,-15.61155 15.55664,-26.35547 0.60986,-8.52353 -1.32759,-14.07099 -6.93555,-19.84961 -5.13365,-5.28988 -11.41161,-8.13515 -26.02148,-11.79687 -18.40901,-4.61391 -21.48104,-6.74987 -18.84766,-13.10742 2.61615,-6.31595 12.69384,-7.26929 23.48242,-2.22071 3.66717,1.71608 7.93494,4.02309 9.48243,5.125 l 2.8125,2.00196 2.74023,-3.95313 c 1.50683,-2.17436 5.00326,-6.07067 7.76953,-8.6582 l 5.0293,-4.70313 -2.70508,-2.1582 c -4.42487,-3.52827 -16.65773,-9.35238 -23.04883,-10.97461 -3.01547,-0.7654 -6.21123,-1.2369 -9.4414,-1.42773 z"
             id="path95" />
          <path
             style="fill:#000000"
             d="m 686.20703,588.00195 c -8.50034,0.17236 -17.01079,2.25891 -24.61328,6.23828 -7.9071,4.13881 -18.51635,14.79127 -21.94141,22.03125 -7.29629,15.42309 -7.35354,29.76232 -0.17968,45.22852 7.16043,15.43724 19.44806,25.15072 36.02734,28.47852 11.2267,2.25342 23.41957,0.69621 34,-4.3418 21.81991,-10.38985 33.97796,-35.28034 28.42773,-58.20117 -3.29336,-13.60058 -14.93341,-28.25011 -27.16992,-34.19336 -7.56011,-3.67194 -16.05044,-5.41259 -24.55078,-5.24024 z M 685.5,611.58594 c 10.08193,0.0958 14.2031,1.45822 20.12109,6.65429 7.50132,6.58624 10.53634,19.80479 7.15039,31.14454 -1.81056,6.06368 -9.85748,13.84131 -17.05859,16.48828 -6.99508,2.57122 -11.54217,2.63867 -18.38086,0.27539 -9.86028,-3.40746 -14.74167,-8.75478 -17.86133,-19.5625 -3.77875,-13.09107 1.04273,-25.68792 12.38477,-32.35547 4.1729,-2.4531 5.55855,-2.72143 13.64453,-2.64453 z"
             id="path94" />
        </g>
        <path
           style="fill:#000000"
           d="m 221.28239,240.91932 c -3.18691,0.063 -6.3636,0.21601 -9.52343,0.46094 -31.02656,2.40468 -58.43518,10.62475 -82.67188,24.79296 -46.583573,27.23168 -76.823503,63.80844 -92.882803,112.34766 -16.958523,51.25713 -14.655513,96.52677 7.26562,142.80273 22.15259,46.76453 51.53231,77.78073 94.011713,99.24805 19.56024,9.88494 47.55478,17.95703 68.875,19.86133 13.02218,1.16312 15.44919,1.16943 31.59766,0.0801 16.54391,-1.11614 20.634,-1.82107 38.05664,-6.55664 26.97386,-7.33166 50.56795,-19.38525 72.5918,-37.08594 10.21903,-8.21309 18.95548,-17.53504 28.7539,-30.67969 21.48383,-28.82073 31.99388,-50.45956 39.47657,-81.27344 4.3046,-17.72644 5.41724,-28.75663 4.89648,-48.57812 -0.54189,-20.62592 -3.22641,-35.02859 -10.83984,-58.17578 -10.32627,-31.39507 -31.05574,-63.99524 -53.86719,-84.71094 -37.59397,-34.14009 -87.93641,-53.47807 -135.74024,-52.5332 z m 3.59376,15.33594 c 23.31006,-0.0161 39.86065,3.0457 60.99804,11.2832 31.78644,12.38755 57.41086,30.6936 77.40625,55.30078 11.15351,13.72599 15.54975,20.64598 24.07617,37.89648 7.79991,15.78062 12.63988,29.92165 16.77735,49.02149 3.05014,14.08044 3.29772,48.0106 0.46093,63.26367 -5.47901,29.46062 -15.76771,52.66767 -35.79687,80.74219 -28.46038,39.89243 -74.46993,65.60214 -128.34375,71.71875 -28.45503,3.23066 -63.17196,-2.90129 -91.50586,-16.16211 -20.04043,-9.37932 -41.92013,-24.53099 -53.595693,-37.11719 -8.34548,-8.99638 -24.70758,-30.84872 -30.28321,-40.44531 -24.15428,-41.57348 -30.91362,-86.92693 -19.63671,-131.73633 10.83291,-43.04514 31.29768,-75.59016 65.744133,-104.55469 16.89003,-14.20209 42.47903,-26.93544 66.94726,-33.3125 17.5648,-4.57785 27.92718,-5.88545 46.75196,-5.89843 z m 1.7871,11.39062 c -11.06833,-0.20445 -22.22519,0.34911 -30.20898,1.71875 -13.72846,2.35516 -36.21809,9.88686 -49.92188,16.71875 -45.95694,22.91145 -82.107503,70.57787 -92.476553,121.9375 -6.0603,30.01766 -5.25991,49.25897 3.25782,78.28516 1.82152,6.20733 3.77035,11.74496 4.33007,12.30468 1.40608,1.40608 3.44339,-3.67392 14.10157,-35.18164 11.65655,-34.45908 10.81441,-32.9082 17.85156,-32.9082 6.653703,0 6.755823,-2.06745 -1.02344,20.5 -3.03347,8.8 -7.52009,22.3 -9.9707,30 -2.45062,7.7 -6.07464,18.44103 -8.05274,23.86914 -1.9781,5.42811 -3.5957,11.30434 -3.5957,13.05859 0,1.85684 1.39103,5.4632 3.32812,8.63086 7.82036,12.78826 12.1314,19.55184 13.5,21.17969 1.73648,2.06535 3.25407,1.9213 24.171873,-2.28516 39.37552,-7.9182 65.19023,-9.04344 76.25,-3.32421 1.61157,0.83337 6.15203,4.74805 10.08984,8.69921 3.93782,3.95115 7.94026,7.63121 8.89454,8.17774 1.51182,0.86585 1.59322,1.5409 0.6289,5.24414 -1.27645,4.90192 -2.45405,5.21163 -9.0625,2.37891 -2.84355,-1.21888 -6.55223,-4.33679 -10.63281,-8.93946 -7.57465,-8.5438 -10.24771,-9.63757 -23.16797,-9.48633 -17.93851,0.21002 -63.99999,9.16956 -63.99999,12.44922 0,0.59151 4.03992,5.01289 8.97655,9.82422 13.88515,13.53269 31.36278,24.45232 52.63477,32.88672 12.3943,4.91437 19.13973,6.73594 35.88867,9.68945 7.71988,1.36132 17.26471,2.31667 23.5,2.35157 36.84777,0.20653 80.88875,-14.58044 107.29883,-36.02735 8.47516,-6.88244 19.4187,-17.55657 18.64258,-18.18359 -0.52445,-0.42369 -41.11262,-10.11242 -48.74024,-11.63477 -6.9428,-1.38566 -23.84623,-1.22369 -27.86523,0.26758 -1.74006,0.64566 -6.60462,4.32383 -10.81055,8.17383 -8.12929,7.44135 -12.68817,10.39098 -16.16992,10.45898 -1.79673,0.0351 -2.21056,-0.63845 -2.54492,-4.14453 -0.33676,-3.53119 -0.004,-4.50838 2.1289,-6.25 1.39076,-1.13541 5.23639,-4.81697 8.54493,-8.18164 9.70681,-9.87162 14.51506,-11.49732 33.96484,-11.48242 15.27129,0.0117 27.55066,1.74789 42.55078,6.01953 11.3748,3.23925 29.56303,6.46799 31.09766,5.51953 0.52325,-0.32338 2.57654,-3.8171 4.5625,-7.76367 1.98595,-3.94658 5.46175,-9.81432 7.72461,-13.03906 8.03918,-11.45646 7.61881,-10.3918 5.92773,-15.01172 -4.21691,-11.52035 -23.8296,-67.10424 -25.96875,-73.59766 -3.00424,-9.11935 -2.30339,-12.03601 2.88477,-12.01172 1.79929,0.008 3.84963,0.38148 4.55664,0.83008 0.70702,0.4486 5.47604,13.1539 10.59765,28.23438 13.63078,40.13555 15.1822,43.233 18.15235,36.25195 2.79392,-6.56685 6.23639,-23.65451 7.48632,-37.1582 3.19303,-34.49625 -5.02211,-69.01945 -24.43359,-102.67383 -14.49,-25.12183 -28.40876,-39.94246 -53.01758,-56.45312 -17.97276,-12.05843 -42.84286,-22.89622 -62.18164,-27.09766 -7.63201,-1.65809 -18.61135,-2.61977 -29.67969,-2.82422 z m -45.51562,26.57031 c 1.46716,0.18576 3.38488,1.57885 7.56445,5.19336 9.05965,7.83482 10.45994,9.54217 10.07227,12.2793 -0.6687,4.72131 -3.9917,3.3288 -13.23438,-5.54688 -4.84815,-4.65563 -8.63021,-9.01949 -8.40429,-9.69726 0.22593,-0.67778 1.40544,-1.59985 2.61914,-2.04883 0.45602,-0.16869 0.89376,-0.24161 1.38281,-0.17969 z m 33.80664,0.30469 7.75,0.0156 c 4.2625,0.008 8.3032,0.36592 8.97852,0.79493 0.9048,0.57479 1.16791,5.109 1,17.23437 l -0.22852,16.4551 17,0.5 17,0.5 v 9 9 l -16.75,-0.37305 -16.75,-0.37304 v 25.66601 25.66406 l -3.25,4.41993 c -1.7875,2.43043 -3.475,4.42554 -3.75,4.43554 -0.275,0.01 -2.975,-2.3353 -6,-5.21093 l -5.5,-5.22852 v -24.5 -24.5 l -15.95703,-0.008 -15.95703,-0.008 -0.83203,-3.99219 c -0.45829,-2.19355 -0.70248,-6.24181 -0.54297,-8.99181 l 0.28906,-5 16.75,0.11719 16.75,0.11523 v -17.86523 z m 52.22461,0.22852 c 0.66186,0.19289 1.25465,0.64379 1.82422,1.33007 1.10945,1.33681 0.10142,2.75548 -7.10547,10 -4.61909,4.64321 -8.91653,8.44141 -9.54883,8.44141 -0.6323,0 -1.70821,-0.6719 -2.39062,-1.49414 -1.61165,-1.94193 0.0968,-4.60656 8.0625,-12.57227 4.55431,-4.55431 7.1726,-6.28377 9.1582,-5.70507 z m 28.26758,41.0039 c 4.3009,0.28907 5.23411,1.73994 4.07812,6.3457 -0.33418,1.33151 -1.16282,2.34129 -1.83984,2.24219 -0.67702,-0.0991 -3.48047,-0.32964 -6.23047,-0.51172 -8.58687,-0.56856 -9.66487,-1.03945 -9.3125,-4.07031 0.27153,-2.33551 0.90941,-2.79855 4.8125,-3.48437 2.475,-0.43494 6.29694,-0.66904 8.49219,-0.52149 z m -141.07422,0.89844 c 1.38846,-0.001 3.09996,0.11915 5.19726,0.34375 6.17091,0.66084 6.38477,0.77867 6.38477,3.49805 0,1.64297 -0.6583,3.06545 -1.58203,3.41992 -0.86998,0.33381 -1.88248,0.52003 -2.25,0.41406 -0.36751,-0.10597 -3.48047,-0.3516 -6.91797,-0.54687 -6.14032,-0.3488 -6.25,-0.40597 -6.25,-3.24024 0,-2.77444 1.25257,-3.88522 5.41797,-3.88867 z m 40.22265,27.45117 c 0.49701,-0.12526 0.91737,-0.0821 1.30079,0.11133 0.51121,0.25786 0.95685,0.78246 1.43164,1.53516 0.81045,1.28483 -0.3566,3.1434 -5.76953,9.1914 -4.8928,5.46683 -7.45518,7.58008 -9.19336,7.58008 -1.95433,0 -2.41016,-0.51382 -2.41016,-2.71289 0,-2.03928 1.74096,-4.41334 7.01758,-9.57617 3.95038,-3.8652 6.13204,-5.75313 7.62304,-6.12891 z m 57.49415,0.0937 c 1.62535,-0.42504 3.51351,0.75527 7.90429,4.94336 3.17261,3.02616 6.32899,6.85484 7.01367,8.50781 1.06402,2.56877 1.00156,3.24845 -0.42968,4.67969 -1.56603,1.56603 -2.15866,1.1574 -9.14844,-6.30078 -7.77617,-8.29727 -8.94621,-10.88699 -5.33984,-11.83008 z m -69.76758,42.28125 c 7.95192,-0.21775 14.96432,1.01104 20.63281,3.69727 3.575,1.69415 8.449,4.90413 10.83203,7.13476 l 4.33399,4.05664 -0.63282,34.32618 c -0.34742,18.87995 -0.25606,38.49062 0.20118,43.57812 0.45717,5.0875 0.68861,9.25 0.51562,9.25 -0.17299,0 -1.98641,-0.71223 -4.03125,-1.58203 -9.02695,-3.83976 -23.3793,-8.68894 -31.00781,-10.47656 -14.5561,-3.41099 -25.49021,-2.23422 -50.36328,5.41992 -6.24127,1.92062 -14.27266,4.21905 -17.84766,5.10547 -6.67117,1.6541 -13.99999,5.68126 -13.99999,7.69336 0,1.95082 23.09131,0.21388 35.49999,-2.66993 13.61892,-3.16508 35.22218,-4.34582 47.27148,-2.58398 11.32202,1.6555 27.32677,8.69488 35.00782,15.39844 7.49959,6.54518 6.57452,6.51012 13.04297,0.52148 6.31772,-5.84909 16.53802,-11.31774 27.67773,-14.80859 12.70049,-3.97995 36.2343,-2.47426 63.57031,4.06836 14.34824,3.43412 27.14155,3.81891 27.71094,0.83203 0.44793,-2.34973 -11.365,-7.41067 -23.28125,-9.97266 -5.5,-1.1825 -15.4,-3.85356 -22,-5.9375 -16.42728,-5.18688 -22.70268,-6.35311 -29.93164,-5.55859 -7.58495,0.83365 -26.82272,7.23626 -36.47266,12.13867 -5.65608,2.87344 -7.47645,3.41303 -8.10351,2.39844 -0.44485,-0.7198 -0.5943,-20.69967 -0.33203,-44.39844 0.54051,-48.83969 -0.27553,-44.4184 9.31445,-50.57227 6.93885,-4.45262 15.66839,-6.37085 29.02539,-6.38085 11.46259,-0.008 11.55855,0.011 29.5,6.11132 9.9,3.36615 21.05293,6.68008 24.7832,7.36524 6.70096,1.2308 6.80433,1.29953 8.76953,5.74219 1.09398,2.47312 3.14024,8.35622 4.54688,13.07226 3.65245,12.24564 19.15872,58.21854 22.55859,66.88281 1.57752,4.02018 3.98776,9.51776 5.35547,12.2168 2.40832,4.75259 3.27121,10.37712 1.73633,11.31445 -1.25721,0.76777 -30.99475,-3.2586 -43.75,-5.92382 -20.93712,-4.37482 -28.67986,-5.38053 -41.5,-5.39063 -17.60285,-0.0138 -29.14461,3.77823 -42.33789,13.91211 -3.76068,2.88861 -8.2565,5.66041 -9.99219,6.1582 -6.04792,1.73452 -8.27006,1.07893 -15.83398,-4.67187 -8.55676,-6.50565 -21.09659,-12.78333 -28.63477,-14.33399 -7.47752,-1.53818 -33.39452,-1.31646 -40.70117,0.34766 -3.3,0.75158 -10.275,2.33254 -15.5,3.51367 -12.27703,2.77528 -43.995903,4.17589 -44.003903,1.94336 -0.003,-0.76723 1.07932,-4.54453 2.40625,-8.39453 7.57913,-21.99046 24.428583,-75.82954 27.070313,-86.5 0.88508,-3.575 2.15324,-7.00876 2.81836,-7.63086 0.66511,-0.62211 7.95898,-2.81205 16.20898,-4.86719 8.25,-2.05515 18.86783,-5.01004 23.5957,-6.56445 9.42769,-3.09961 18.31956,-4.76272 26.27149,-4.98047 z m 87.88086,22.31836 c -5.87517,0.18941 -10.7069,1.24648 -14.86133,3.14844 -7.87867,3.60697 -12.46562,7.20752 -11.70508,9.18945 0.74936,1.9528 3.37516,1.51866 12.81836,-2.12305 6.68307,-2.57729 7.58859,-2.67594 20,-2.14453 8.70939,0.3729 17.62066,1.53367 27,3.51563 16.3122,3.44695 20.5,3.78696 20.5,1.66211 0,-2.30721 -3.71233,-4.12848 -14,-6.86914 -17.27123,-4.6011 -29.96002,-6.69459 -39.75195,-6.37891 z m -98.56836,0.0488 c -2.37746,0.10052 -4.68348,0.31312 -6.70703,0.64453 -9.32534,1.52726 -35.87518,8.70672 -37.65235,10.18164 -0.72587,0.60242 -1.32031,2.39001 -1.32031,3.97266 0,3.40929 0.40612,3.47042 6.1543,0.92773 5.15967,-2.28237 26.23478,-6.70744 36.45898,-7.6543 8.6752,-0.80341 19.06583,1.27364 28.35352,5.66602 6.05045,2.86141 9.0332,3.20003 9.0332,1.02539 0,-1.00257 -12.76915,-10.91054 -16.70117,-12.95898 -2.7132,-1.41349 -10.48678,-2.10626 -17.61914,-1.80469 z m 104.51172,21.1582 c -8.49203,0.1572 -15.4273,1.83739 -21.96094,5.06055 -7.46542,3.68281 -10.92082,7.21539 -9.83203,10.05273 0.34011,0.88631 1.17651,1.3589 1.85937,1.05078 15.59059,-7.03472 19.26937,-8.05989 30.24219,-8.4375 8.57458,-0.29507 13.20493,0.0955 21,1.76954 25.92131,5.56664 33.81092,5.90753 30.92969,1.33984 -1.1908,-1.88781 -5.69323,-3.34155 -20.92969,-6.76172 -12.7671,-2.86586 -22.81657,-4.23142 -31.30859,-4.07422 z m -101.81055,0.77149 c -6.98653,-0.26687 -14.24259,0.67592 -26.38086,3.17578 -22.22806,4.57783 -30.22331,7.74739 -27.19336,10.77734 0.82866,0.82866 4.72177,0.3847 14.9082,-1.69726 26.5297,-5.42229 28.44524,-5.67803 38.28516,-5.12305 10.36122,0.58438 19.52002,3.17468 25.07617,7.09375 3.92964,2.77179 5.29629,2.72139 5.73047,-0.21485 0.73679,-4.98266 -10.79934,-11.57816 -23.35742,-13.35351 -2.43977,-0.34491 -4.73952,-0.56925 -7.06836,-0.6582 z m 98.61914,19.94539 c -9.98675,0.60768 -24.93251,7.86244 -26.52344,12.875 -0.36239,1.14182 -0.40831,2.32801 -0.10156,2.63476 0.30675,0.30676 4.51083,-1.18094 9.3418,-3.30468 8.70501,-3.82675 8.895,-3.86046 21.2832,-3.79492 12.82464,0.0678 15.88954,0.57826 43.5,7.24609 15.71625,3.79541 15.5,3.79318 15.5,0.17969 0,-3.7711 -0.56352,-4.04739 -17,-8.35938 -18.12622,-4.75528 -37.89928,-7.96947 -46,-7.47656 z m -104.76172,0.67969 c -6.88151,-0.0863 -13.78973,0.59443 -19.73828,2.13086 -16.13441,4.16729 -32.04875,9.36692 -33.88867,11.07226 -1.08504,1.00568 -1.63024,2.42453 -1.28125,3.33399 0.84044,2.19016 2.69397,2.00239 14.16992,-1.44336 19.63524,-5.89564 24.79189,-6.9568 36.87305,-7.58204 13.69036,-0.70845 20.60852,0.25289 30.90625,4.29102 4.94076,1.93746 7.07933,2.35817 7.88281,1.55469 1.76766,-1.76766 0.42638,-3.52137 -5.29883,-6.92188 -6.75932,-4.01473 -18.15582,-6.2917 -29.625,-6.43554 z m 62.6211,73.99414 0.69335,4.62695 c 0.38158,2.54439 0.39492,7.66258 0.0293,11.37305 -0.84367,8.56193 -0.18316,10.49354 3.29297,9.62109 1.43244,-0.35952 2.92245,-1.16696 3.31055,-1.79492 0.3881,-0.62799 0.92269,-0.92497 1.1875,-0.66016 0.26481,0.2648 0.93427,6.99361 1.48828,14.95313 0.55401,7.95952 0.92367,14.5144 0.82226,14.5664 -0.10142,0.052 -4.23359,-4.02583 -9.18359,-9.0625 l -9,-9.1582 -8,8.67188 c -6.1713,6.68848 -8.19646,8.33791 -8.86133,7.21875 -0.82927,-1.39591 -0.17972,-18.60451 1.00391,-26.59375 0.3607,-2.43464 1.83336,-5.26251 3.97656,-7.63477 2.40842,-2.66583 3.88375,-5.71629 5.04883,-10.4375 0.93114,-3.77324 1.96507,-6.15781 2.37891,-5.48828 0.50857,0.82289 2.42018,0.97337 6.27148,0.49219 z"
           id="path1" />
      </g>
      <rect
         style="fill:#ffffff;fill-opacity:1;stroke:none;stroke-width:5.00478;stroke-dasharray:none;stroke-opacity:1"
         id="rect75"
         width="18.49621"
         height="11.181126"
         x="214.4568"
         y="396.65375" />
      <rect
         style="fill:#000000;fill-opacity:1;stroke:none;stroke-width:1.23112;stroke-dasharray:none;stroke-opacity:1"
         id="rect76"
         width="37.838024"
         height="1.471503"
         x="232.46158"
         y="328.49435" />
      <path
         style="fill:#ffcc00;fill-opacity:1;stroke:none;stroke-width:0.24;stroke-dasharray:none;stroke-opacity:1"
         d="M 214.5,377.875 V 348 h -15.92908 c -15.0621,0 -15.93266,-0.0119 -15.995,-0.21875 -0.15568,-0.51661 -0.94428,-4.55533 -1.06974,-5.47855 -0.37588,-2.76602 -0.3931,-6.17535 -0.0557,-11.03394 l 0.0812,-1.16874 16.7342,0.0927 16.7342,0.0927 v -17.84375 -17.84374 l 6.46875,0.0652 c 6.1244,0.0617 7.38808,0.12618 9.26009,0.4726 1.20185,0.2224 1.34279,0.46397 1.67119,2.86432 0.18959,1.3857 0.22738,16.9616 0.0639,26.34375 L 232.36542,330 h 16.61416 c 9.13779,0 16.78995,0.0352 17.00479,0.0781 l 0.39063,0.0781 v 8.9114 8.91141 l -1.65625,-0.058 C 262.57524,347.84588 235.18291,347.25 233.87287,347.25 H 232.875 v 30.25 30.25 H 223.6875 214.5 Z"
         id="path80" />
      <path
         style="fill:#ffcc00;fill-opacity:1;stroke:none;stroke-width:0.0075;stroke-dasharray:none;stroke-opacity:1"
         d="m 207.91504,348.0166 c -3.861,-9.8e-4 -3.86426,-9.9e-4 -3.86426,-0.009 0,-0.008 0.003,-0.008 4.68555,-0.008 h 4.68554 v 0.01 0.01 l -0.82128,-9.7e-4 c -0.45171,-5.4e-4 -2.56021,-10e-4 -4.68555,-0.002 z"
         id="path81" />
      <path
         style="fill:#ffcc00;fill-opacity:1;stroke:none;stroke-width:0.0075;stroke-dasharray:none;stroke-opacity:1"
         d="m 208.74609,330.24963 c -2.25048,-0.0125 -4.22758,-0.024 -4.39355,-0.0254 l -0.30176,-0.003 v -0.0216 -0.0216 l 0.21192,0.003 c 0.11655,10e-4 2.19472,0.0158 4.61816,0.0319 2.42344,0.0162 4.43657,0.0304 4.47363,0.0317 l 0.0674,0.002 v 0.0133 0.0132 l -0.29199,-5.1e-4 c -0.16059,-2.8e-4 -2.1333,-0.0108 -4.38379,-0.0233 z"
         id="path82" />
      <path
         style="fill:#ffcc00;fill-opacity:1;stroke:none;stroke-width:0.0106066;stroke-dasharray:none;stroke-opacity:1"
         d="m 181.13753,335.70033 c 0.006,-0.1813 0.0192,-0.47342 0.031,-0.68363 0.0556,-0.98599 0.28863,-4.98893 0.29052,-4.99083 0.003,-0.003 6.78312,0.0427 6.99454,0.0473 l 0.15607,0.003 v 0.0297 0.0298 l -0.0677,-1e-5 c -0.14292,-2e-5 -6.01052,-0.0326 -6.4993,-0.0361 l -0.51514,-0.004 v 0.0123 c 0,0.007 -0.0211,0.31592 -0.0468,0.68696 -0.0804,1.15944 -0.11298,1.67376 -0.1519,2.39821 -0.0443,0.82435 -0.0839,1.79701 -0.0968,2.3782 -0.002,0.0775 -0.005,0.16386 -0.006,0.19196 l -0.003,0.0511 h -0.0445 -0.0445 z"
         id="path83" />
      <path
         style="fill:#ffcc00;fill-opacity:1;stroke:none;stroke-width:0.0106066;stroke-dasharray:none;stroke-opacity:1"
         d="m 184.49449,348.00151 -1.95245,-0.003 -0.065,-0.31213 c -0.59782,-2.86899 -0.80344,-3.85963 -0.82443,-3.97195 -0.0963,-0.51543 -0.18356,-1.12258 -0.26304,-1.83035 -0.022,-0.19591 -0.0229,-0.18048 0.0107,-0.18048 0.0325,0 0.0264,-0.0219 0.0502,0.17954 0.0372,0.31511 0.067,0.52678 0.11358,0.80654 0.23288,1.39999 0.86637,4.59989 1.00507,5.07681 0.0118,0.0407 0.0342,0.0635 0.0785,0.0802 0.23024,0.0865 1.10127,0.11838 3.77727,0.13805 0.40713,0.003 0.92545,0.005 1.15181,0.005 0.48014,4e-5 0.86731,0.005 0.86731,0.012 0,0.003 -0.44933,0.004 -0.99851,0.003 -0.54919,-7.5e-4 -1.87712,-0.003 -2.95096,-0.004 z"
         id="path84" />
      <path
         style="fill:#ffcc00;fill-opacity:1;stroke:none;stroke-width:0.0075;stroke-dasharray:none;stroke-opacity:1"
         d="m 181.36959,341.70292 c -0.004,-0.0181 -0.0414,-0.40123 -0.0627,-0.64042 -0.10019,-1.12391 -0.15894,-2.23725 -0.18244,-3.45703 -0.009,-0.44288 -0.004,-1.57535 0.007,-1.70996 l 0.002,-0.0283 h 0.0461 0.0461 l -0.002,0.042 c -0.004,0.1008 -0.01,0.50715 -0.0135,0.94434 -0.0122,1.35773 0.0293,2.67955 0.1197,3.81445 0.026,0.3262 0.0778,0.86754 0.0982,1.02531 0.002,0.0178 0.002,0.0189 -0.004,0.0132 -0.005,-0.005 -0.0113,-0.006 -0.027,-0.004 -0.0114,10e-4 -0.022,0.004 -0.0234,0.006 -0.001,0.002 -0.004,-1.2e-4 -0.005,-0.005 z"
         id="path85" />
      <path
         style="fill:#ffcc00;fill-opacity:1;stroke:none;stroke-width:0.0075;stroke-dasharray:none;stroke-opacity:1"
         d="m 201.79492,330.21082 c -2.49508,-0.0143 -3.27656,-0.0186 -4.19531,-0.0233 -0.42324,-0.002 -0.87368,-0.005 -1.00098,-0.006 l -0.23144,-0.002 v -0.0256 -0.0256 l 0.44629,0.003 c 0.24546,10e-4 0.68535,0.004 0.97754,0.007 0.54051,0.004 6.17636,0.0428 6.23026,0.0428 h 0.0295 v 0.0215 0.0215 l -0.18848,-5.4e-4 c -0.10366,-2.9e-4 -1.03398,-0.005 -2.06738,-0.0113 z"
         id="path86" />
      <path
         style="fill:#ffcc00;fill-opacity:1;stroke:none;stroke-width:0.0075;stroke-dasharray:none;stroke-opacity:1"
         d="m 192.49219,330.15968 c -1.88311,-0.0104 -3.52622,-0.0201 -3.65137,-0.0214 l -0.22754,-0.002 v -0.0308 -0.0308 l 0.0479,-2.1e-4 c 0.0263,-1.2e-4 1.77095,0.0117 3.87696,0.0263 l 3.8291,0.0265 v 0.0264 0.0264 l -0.22559,-5.2e-4 c -0.12407,-2.8e-4 -1.76631,-0.009 -3.64941,-0.0195 z"
         id="path87" />
      <path
         style="fill:#ffcc00;fill-opacity:1;stroke:none;stroke-width:0.0075;stroke-dasharray:none;stroke-opacity:1"
         d="m 214.18945,330.27908 c -0.42109,-0.003 -0.76606,-0.005 -0.7666,-0.005 -5.4e-4,-2.3e-4 -9.8e-4,-0.007 -9.8e-4,-0.0147 v -0.0143 l 0.40528,0.003 c 0.2229,10e-4 0.56831,0.004 0.76758,0.005 l 0.3623,0.003 v -2.97135 -2.97134 h 0.0215 H 215 v 2.98633 2.98633 l -0.0225,-6.4e-4 c -0.0123,-3.4e-4 -0.36699,-0.003 -0.78809,-0.005 z"
         id="path88" />
      <path
         style="fill:#ffcc00;fill-opacity:1;stroke:none;stroke-width:0.0075;stroke-dasharray:none;stroke-opacity:1"
         d="m 214.95703,322.125 v -2.1875 h 0.0215 H 215 v 2.1875 2.1875 h -0.0215 -0.0215 z"
         id="path89" />
      <path
         style="fill:#ffcc00;fill-opacity:1;stroke:none;stroke-width:0.0075;stroke-dasharray:none;stroke-opacity:1"
         d="m 214.95703,317.4375 v -2.5 h 0.0215 H 215 v 2.5 2.5 h -0.0215 -0.0215 z"
         id="path90" />
      <path
         style="fill:#ffcc00;fill-opacity:1;stroke:none;stroke-width:0.0075;stroke-dasharray:none;stroke-opacity:1"
         d="m 214.95703,312.4375 v -2.5 h 0.0215 H 215 v 2.5 2.5 h -0.0215 -0.0215 z"
         id="path91" />
      <path
         style="fill:#ffcc00;fill-opacity:1;stroke:none;stroke-width:0.0075;stroke-dasharray:none;stroke-opacity:1"
         d="M 214.95703,307.59375 V 305.25 h 0.0215 H 215 v 2.34375 2.34375 h -0.0215 -0.0215 z"
         id="path92" />
      <path
         style="fill:#ffcc00;fill-opacity:1;stroke:none;stroke-width:0.0075;stroke-dasharray:none;stroke-opacity:1"
         d="m 214.95703,302.4375 v -2.8125 h 0.0215 H 215 v 2.8125 2.8125 h -0.0215 -0.0215 z"
         id="path93" />
      <path
         style="fill:#ffcc00;fill-opacity:1;stroke:none;stroke-width:0.0075;stroke-dasharray:none;stroke-opacity:1"
         d="m 214.95703,297.125 v -2.5 h 0.0215 H 215 v 2.5 2.5 h -0.0215 -0.0215 z"
         id="path106" />
      <path
         style="fill:#ffcc00;fill-opacity:1;stroke:none;stroke-width:0.0075;stroke-dasharray:none;stroke-opacity:1"
         d="m 216.86328,294.61517 c -0.66709,-0.007 -1.35923,-0.014 -1.53808,-0.0156 L 215,294.59658 v 0.0142 0.0142 h -0.0215 -0.0215 v -0.0514 -0.0514 l 0.99902,0.003 c 0.54947,0.001 1.26753,0.003 1.59571,0.003 h 0.59668 v 0.0508 0.0508 l -0.0361,-5.3e-4 c -0.0199,-2.9e-4 -0.58193,-0.006 -1.24902,-0.0132 z"
         id="path107" />
      <path
         style="fill:#ffcc00;fill-opacity:1;stroke:none;stroke-width:0.015;stroke-dasharray:none;stroke-opacity:1"
         d="m 232.56774,308.82617 c -0.0101,-5.29894 -0.0512,-8.73514 -0.12256,-10.24805 -0.019,-0.40362 -0.026,-0.47436 -0.0906,-0.92578 -0.19331,-1.3504 -0.3348,-1.82865 -0.62763,-2.1215 -0.17665,-0.17666 -0.40672,-0.27798 -0.83208,-0.36644 -0.14335,-0.0298 -0.58984,-0.1086 -0.81677,-0.14413 -0.9861,-0.15438 -1.96594,-0.22979 -3.65625,-0.28141 l -0.33203,-0.0101 0.90279,-0.001 0.90278,-10e-4 0.28862,0.0236 c 1.76356,0.14403 2.9704,0.33503 3.4085,0.53944 0.15944,0.0744 0.25748,0.18045 0.36784,0.39793 0.55988,1.10332 0.78538,4.5717 0.76315,11.73828 -0.005,1.48535 -0.008,1.96303 -0.0251,3.56836 l -0.005,0.51367 h -0.0601 -0.0601 z"
         id="path108" />
      <path
         style="fill:#ffcc00;fill-opacity:1;stroke:none;stroke-width:0.015;stroke-dasharray:none;stroke-opacity:1"
         d="m 225.36328,294.71451 c -1.00714,-0.0228 -2.80488,-0.0461 -5.58984,-0.0724 l -0.56641,-0.005 -0.002,-0.0528 -0.002,-0.0528 1.52575,0.004 c 3.22641,0.008 3.82433,0.0173 5.21715,0.0783 0.60108,0.0263 1.79654,0.0955 1.8711,0.10833 0.0435,0.007 -2.07981,10e-4 -2.45313,-0.007 z"
         id="path109" />
      <path
         style="fill:#ffcc00;fill-opacity:1;stroke:none;stroke-width:0.0075;stroke-dasharray:none;stroke-opacity:1"
         d="m 218.63086,294.63261 c -0.12031,-10e-4 -0.27808,-0.003 -0.35059,-0.003 l -0.13183,-5.6e-4 v -0.0514 -0.0514 l 0.1084,0.003 c 0.0596,0.001 0.29692,0.003 0.52734,0.003 l 0.41894,1e-5 v 0.0527 0.0527 l -0.17675,-7.7e-4 c -0.0972,-4.2e-4 -0.2752,-0.002 -0.39551,-0.003 z"
         id="path110" />
      <path
         style="fill:#ffcc00;fill-opacity:1;stroke:none;stroke-width:0.0075;stroke-dasharray:none;stroke-opacity:1"
         d="m 225.47656,294.7146 c -0.10205,-0.002 -0.27344,-0.005 -0.38086,-0.007 -0.82732,-0.0183 -2.60772,-0.0411 -5.07422,-0.065 -0.32656,-0.003 -0.6434,-0.006 -0.7041,-0.006 l -0.11035,-2e-5 v -0.0514 -0.0514 l 1.20801,0.003 c 3.09995,0.007 3.96106,0.0167 5.00683,0.0573 0.34634,0.0134 0.81234,0.034 0.84278,0.0373 l 0.0205,0.002 v 0.0427 0.0427 l -0.31153,-6.7e-4 c -0.17134,-3.7e-4 -0.39502,-0.002 -0.49707,-0.003 z"
         id="path111" />
      <path
         style="fill:#ffcc00;fill-opacity:1;stroke:none;stroke-width:0.0075;stroke-dasharray:none;stroke-opacity:1"
         d="m 216.91406,296.53318 v -1.91605 l 0.0264,0.002 c 0.0366,0.003 1.13339,0.0115 1.13574,0.009 0.001,-10e-4 -0.23848,-0.004 -0.53226,-0.007 -0.29378,-0.003 -0.55568,-0.006 -0.582,-0.007 l -0.0478,-0.002 v -0.0416 -0.0416 l 0.6416,10e-4 c 0.35288,6.1e-4 0.86792,0.002 1.14454,0.004 l 0.50292,0.002 v 0.0508 0.0508 l -0.15917,-0.003 c -0.0875,-10e-4 -0.33672,-0.003 -0.55372,-0.004 -0.21699,-9.6e-4 0.24268,0.005 1.02149,0.0132 0.77881,0.008 1.60937,0.017 1.8457,0.0194 2.26167,0.0234 3.52968,0.042 4.52735,0.0667 0.0838,0.002 0.19541,0.005 0.24804,0.006 0.0526,10e-4 0.10845,0.003 0.12403,0.004 l 0.0283,0.002 v 1.85319 1.85318 h -4.68555 -4.68555 z"
         id="path112" />
      <path
         style="fill:#ffcc00;fill-opacity:1;stroke:none;stroke-width:0.0075;stroke-dasharray:none;stroke-opacity:1"
         d="m 216.91406,296.53282 v -1.9164 l 0.0225,0.002 c 0.0124,10e-4 0.19121,0.003 0.39746,0.004 l 0.375,0.002 -0.34961,-0.003 c -0.19228,-0.002 -0.37114,-0.005 -0.39746,-0.006 l -0.0478,-0.002 v -0.0416 -0.0416 l 0.6416,0.001 c 0.35288,6.1e-4 0.86792,0.002 1.14454,0.004 l 0.50292,0.002 v 0.0507 0.0507 l -0.2041,-0.002 c -0.11225,-10e-4 -0.28496,-0.004 -0.38379,-0.005 -0.0988,-10e-4 -0.17868,-10e-4 -0.17745,-3e-5 0.002,0.002 0.3353,0.007 1.04074,0.0142 0.21699,0.002 0.64765,0.007 0.95703,0.01 0.30937,0.003 0.7374,0.008 0.95117,0.01 2.21242,0.0227 3.50112,0.0417 4.50195,0.0663 0.0838,0.002 0.19453,0.005 0.2461,0.006 0.0516,10e-4 0.10649,0.003 0.12207,0.004 l 0.0283,0.002 v 1.85319 1.85318 h -4.68555 -4.68555 z m 1.05789,-1.90684 c -0.0466,-6.2e-4 -0.12393,-6.2e-4 -0.17188,0 -0.048,6.2e-4 -0.01,10e-4 0.0847,10e-4 0.0945,0 0.13376,-5.1e-4 0.0872,-10e-4 z"
         id="path113" />
      <path
         style="fill:#ffcc00;fill-opacity:1;stroke:none;stroke-width:0.0075;stroke-dasharray:none;stroke-opacity:1"
         d="m 225.47266,294.71459 c -0.10205,-0.002 -0.27256,-0.005 -0.37891,-0.007 -0.73992,-0.0165 -2.43126,-0.0388 -4.48438,-0.059 -0.22451,-0.002 -0.57958,-0.006 -0.78906,-0.008 -0.20947,-0.002 -0.43315,-0.004 -0.49707,-0.004 l -0.11621,-1e-5 v -0.0514 -0.0514 l 1.20606,0.003 c 3.47122,0.008 4.21894,0.0187 5.61035,0.0825 0.0698,0.003 0.14804,0.007 0.17383,0.008 0.0258,0.001 0.0561,0.003 0.0674,0.004 l 0.0205,0.002 v 0.0427 0.0427 l -0.31348,-6.7e-4 c -0.17241,-3.6e-4 -0.39697,-0.002 -0.49902,-0.003 z"
         id="path114" />
      <path
         style="fill:#ffcc00;fill-opacity:1;stroke:none;stroke-width:0.0075;stroke-dasharray:none;stroke-opacity:1"
         d="m 232.42187,326.86718 c 0,-0.002 0.01,-0.55631 0.0214,-1.23145 0.0506,-2.90082 0.0734,-4.58898 0.088,-6.51854 0.002,-0.30615 0.005,-0.57466 0.006,-0.59668 l 0.002,-0.04 h 0.0289 c 0.0289,0 0.0289,1e-5 0.0291,0.0107 7.4e-4,0.0423 -0.11443,8.35025 -0.11593,8.36328 l -0.002,0.0166 h -0.0291 c -0.0168,0 -0.0291,-0.002 -0.0291,-0.004 z"
         id="path115" />
      <path
         style="fill:#ffcc00;fill-opacity:1;stroke:none;stroke-width:0.0075;stroke-dasharray:none;stroke-opacity:1"
         d="m 232.36892,329.8916 c 0.001,-0.0596 0.0129,-0.71396 0.0256,-1.4541 0.0127,-0.74014 0.0242,-1.39536 0.0256,-1.45605 l 0.003,-0.11036 h 0.0288 0.0289 l 7e-5,0.0557 c 4e-5,0.0306 -0.006,0.51439 -0.0141,1.07505 -0.0103,0.7435 -0.013,1.01978 -0.01,1.02083 0.003,10e-4 0.004,0.13094 0.004,0.47378 v 0.47233 h 1.83593 1.83594 v 0.0156 V 330 h -1.88324 -1.88324 z"
         id="path116" />
      <path
         style="fill:#ffcc00;fill-opacity:1;stroke:none;stroke-width:0.0075;stroke-dasharray:none;stroke-opacity:1"
         d="m 241.79687,329.98437 v -0.0156 h 4.68555 4.68555 v 0.0156 V 330 h -4.68555 -4.68555 z"
         id="path117" />
      <path
         style="fill:#ffcc00;fill-opacity:1;stroke:none;stroke-width:0.0075;stroke-dasharray:none;stroke-opacity:1"
         d="m 236.13281,329.98437 v -0.0156 h 2.83203 2.83203 v 0.0156 V 330 h -2.83203 -2.83203 z"
         id="path118" />
      <path
         style="fill:#ffcc00;fill-opacity:1;stroke:none;stroke-width:0.0075;stroke-dasharray:none;stroke-opacity:1"
         d="m 258.08789,330.01137 c -1.41559,-0.005 -4.75474,-0.0114 -5.86816,-0.0114 l -1.05176,3e-5 v -0.0156 -0.0156 h 4.38086 4.38086 v 0.0234 0.0234 l -0.49903,-6.5e-4 c -0.27446,-3.7e-4 -0.87871,-0.002 -1.34277,-0.004 z"
         id="path119" />
      <path
         style="fill:#ffcc00;fill-opacity:1;stroke:none;stroke-width:0.0075;stroke-dasharray:none;stroke-opacity:1"
         d="m 266.375,332.32905 v -2.17485 l -0.20215,-0.0399 c -0.11118,-0.022 -0.21269,-0.0408 -0.22558,-0.0419 -0.11642,-0.0101 -0.9769,-0.0232 -2.17383,-0.0332 -1.00012,-0.008 -2.97117,-0.0195 -3.4535,-0.0196 -0.16885,-2e-5 -0.32574,-0.001 -0.34863,-0.003 l -0.0416,-0.003 v -0.0229 -0.0228 l 2.34472,-3e-5 2.34473,-3e-5 0.87305,0.0254 c 0.48017,0.0139 0.89282,0.0264 0.91699,0.0278 l 0.0439,0.002 v 2.23985 2.23985 h -0.0391 -0.0391 z"
         id="path120" />
      <path
         style="fill:#ffcc00;fill-opacity:1;stroke:none;stroke-width:0.0075;stroke-dasharray:none;stroke-opacity:1"
         d="m 266.375,336.37891 v -1.875 h 0.0391 0.0391 v 1.875 1.875 h -0.0391 -0.0391 z"
         id="path121" />
      <path
         style="fill:#ffcc00;fill-opacity:1;stroke:none;stroke-width:0.0075;stroke-dasharray:none;stroke-opacity:1"
         d="m 266.375,340.59766 v -2.34375 h 0.0391 0.0391 v 2.34375 2.34375 h -0.0391 -0.0391 z"
         id="path122" />
      <path
         style="fill:#ffcc00;fill-opacity:1;stroke:none;stroke-width:0.0075;stroke-dasharray:none;stroke-opacity:1"
         d="m 266.375,345.44141 v -2.5 h 0.0391 0.0391 v 2.5 2.5 h -0.0391 -0.0391 z"
         id="path123" />
      <path
         style="fill:#ffcc00;fill-opacity:1;stroke:none;stroke-width:0.0075;stroke-dasharray:none;stroke-opacity:1"
         d="m 266.0957,348.01136 c -0.16543,-0.004 -1.72988,-0.0388 -3.47656,-0.0775 -1.74668,-0.0387 -3.2061,-0.0715 -3.24316,-0.0729 l -0.0674,-0.002 v -0.0351 -0.0351 l 0.0811,0.003 c 0.0446,10e-4 0.49678,0.0122 1.00488,0.0239 1.75935,0.0406 3.2961,0.0781 3.90625,0.0955 0.23621,0.007 0.36653,0.0111 1.22785,0.0412 0.4594,0.016 0.83777,0.0292 0.84082,0.0292 0.004,0 0.006,-0.005 0.006,-0.0195 v -0.0195 h 0.0391 0.0391 v 0.0391 0.0391 l -0.0283,-5.5e-4 c -0.0156,-3e-4 -0.16367,-0.004 -0.3291,-0.008 z"
         id="path124" />
      <path
         style="fill:#ffcc00;fill-opacity:1;stroke:none;stroke-width:0.0075;stroke-dasharray:none;stroke-opacity:1"
         d="m 251.375,347.68355 c -0.73799,-0.0167 -1.42881,-0.0323 -1.53516,-0.0347 -0.10634,-0.002 -1.53545,-0.0342 -3.17578,-0.0706 -1.64033,-0.0364 -3.0268,-0.0674 -3.08105,-0.0689 l -0.0986,-0.003 v -0.0332 -0.0332 l 0.1045,0.003 c 0.0575,10e-4 0.63974,0.014 1.29394,0.0278 0.6542,0.0138 1.27031,0.027 1.36914,0.0292 0.0988,0.002 0.50576,0.011 0.9043,0.0196 1.21892,0.0262 3.88766,0.0843 4.57031,0.0994 0.14502,0.003 0.42627,0.009 0.625,0.0136 0.19873,0.004 0.39341,0.009 0.43262,0.0102 l 0.0713,0.002 v 0.0347 0.0347 l -0.0693,-4.9e-4 c -0.0381,-2.7e-4 -0.67314,-0.0141 -1.41113,-0.0308 z"
         id="path125" />
      <path
         style="fill:#ffcc00;fill-opacity:1;stroke:none;stroke-width:0.0075;stroke-dasharray:none;stroke-opacity:1"
         d="m 254.89258,347.76155 c -1.11934,-0.0253 -2.0356,-0.0462 -2.03613,-0.0464 -5.4e-4,-1.8e-4 -9.8e-4,-0.0161 -9.8e-4,-0.0355 v -0.0352 h 0.013 c 0.0282,0 3.79537,0.0841 4.0221,0.0898 0.087,0.002 0.16216,0.004 0.167,0.004 0.008,0 0.009,0.001 0.009,0.0352 v 0.0351 l -0.0693,-4.8e-4 c -0.0381,-2.6e-4 -0.98516,-0.0212 -2.10449,-0.0466 z"
         id="path126" />
      <path
         style="fill:#ffcc00;fill-opacity:1;stroke:none;stroke-width:0.0075;stroke-dasharray:none;stroke-opacity:1"
         d="m 258.13974,347.83422 c -0.58594,-0.0133 -1.06602,-0.0249 -1.06686,-0.0259 -8.4e-4,-9.5e-4 -0.003,-0.0171 -0.004,-0.0359 -0.002,-0.0304 -0.002,-0.0342 0.004,-0.0342 0.0129,0 1.89378,0.0429 2.05052,0.0468 0.0881,0.002 0.16587,0.004 0.17285,0.004 l 0.0127,1e-5 v 0.0352 0.0351 l -0.0517,-5.1e-4 c -0.0285,-2.8e-4 -0.53116,-0.0114 -1.1171,-0.0246 z"
         id="path127" />
      <path
         style="fill:#ffcc00;fill-opacity:1;stroke:none;stroke-width:0.0075;stroke-dasharray:none;stroke-opacity:1"
         d="M 232.875,349.85352 V 347.25 l 0.44824,4e-5 c 0.65206,6e-5 1.00033,0.005 2.86621,0.041 1.23135,0.0238 1.69654,0.0331 1.7666,0.0354 l 0.0752,0.002 v 0.029 0.029 l -0.0674,-0.002 c -0.0371,-10e-4 -1.13438,-0.0259 -2.43848,-0.0547 -1.3041,-0.0288 -2.41636,-0.0535 -2.47168,-0.055 l -0.10059,-0.003 v 2.59235 2.59235 h -0.0391 -0.0391 z"
         id="path128" />
      <path
         style="fill:#ffcc00;fill-opacity:1;stroke:none;stroke-width:0.0075;stroke-dasharray:none;stroke-opacity:1"
         d="m 240.76562,347.44702 c -1.45986,-0.0329 -2.67231,-0.0599 -2.69433,-0.0601 l -0.04,-2.4e-4 v -0.0293 -0.0293 l 0.0186,10e-6 c 0.0244,0 2.55015,0.0518 3.04395,0.0624 0.0999,0.002 0.64834,0.0136 1.21875,0.0254 0.57041,0.0118 1.06743,0.0226 1.10449,0.0239 l 0.0674,0.002 v 0.0328 0.0328 l -0.0322,-4.9e-4 c -0.0177,-2.7e-4 -1.22666,-0.0274 -2.68653,-0.0603 z"
         id="path129" />
      <path
         style="fill:#ffcc00;fill-opacity:1;stroke:none;stroke-width:0.0106066;stroke-dasharray:none;stroke-opacity:1"
         d="m 232.87567,360.50292 v -5.93306 h 0.0387 0.0387 v 5.93306 5.93307 h -0.0387 -0.0387 z"
         id="path130" />
      <path
         style="fill:#ffcc00;fill-opacity:1;stroke:none;stroke-width:0.015;stroke-dasharray:none;stroke-opacity:1"
         d="m 232.875,353.51172 v -1.05078 h 0.0391 0.0391 v 1.05078 1.05078 h -0.0391 -0.0391 z"
         id="path131" />
      <path
         style="fill:#ffcc00;fill-opacity:1;stroke:none;stroke-width:0.015;stroke-dasharray:none;stroke-opacity:1"
         d="m 232.875,370.65625 v -4.21875 h 0.0391 0.0391 v 4.21875 4.21875 h -0.0391 -0.0391 z"
         id="path132" />
      <path
         style="fill:#ffcc00;fill-opacity:1;stroke:none;stroke-width:0.015;stroke-dasharray:none;stroke-opacity:1"
         d="m 232.875,379.5625 v -4.6875 h 0.0391 0.0391 v 4.6875 4.6875 h -0.0391 -0.0391 z"
         id="path133" />
      <path
         style="fill:#ffcc00;fill-opacity:1;stroke:none;stroke-width:0.015;stroke-dasharray:none;stroke-opacity:1"
         d="m 232.875,388.625 v -4.375 h 0.0391 0.0391 v 4.375 4.375 h -0.0391 -0.0391 z"
         id="path134" />
      <path
         style="fill:#ffcc00;fill-opacity:1;stroke:none;stroke-width:0.015;stroke-dasharray:none;stroke-opacity:1"
         d="M 232.875,397.0625 V 393 h 0.0391 0.0391 v 2.17448 c 0,1.19597 -0.002,3.02409 -0.005,4.0625 l -0.005,1.88802 h -0.0339 -0.0339 z"
         id="path135" />
      <path
         style="fill:#ffcc00;fill-opacity:1;stroke:none;stroke-width:0.015;stroke-dasharray:none;stroke-opacity:1"
         d="M 220.16406,407.78906 V 407.75 h 6.35547 6.35547 v -3.3125 -3.3125 h 0.0352 0.0352 v 3.35156 3.35156 h -6.39062 -6.39063 z"
         id="path136" />
      <path
         style="fill:#ffcc00;fill-opacity:1;stroke:none;stroke-width:0.0106066;stroke-dasharray:none;stroke-opacity:1"
         d="m 214.45775,404.50375 v -3.33114 h 0.0193 0.0193 v 3.28971 3.2897 h 2.83119 2.83119 v 0.0386 0.0387 l 0.93498,10e-4 c 0.51424,7.8e-4 -0.76849,0.002 -2.85052,0.003 l -3.78551,10e-4 z"
         id="path137" />
      <path
         style="fill:#ffcc00;fill-opacity:1;stroke:none;stroke-width:0.0075;stroke-dasharray:none;stroke-opacity:1"
         d="m 214.45703,398.51367 v -2.6582 h 0.0215 0.0215 v 2.6582 2.6582 h -0.0215 -0.0215 z"
         id="path138" />
      <path
         style="fill:#ffcc00;fill-opacity:1;stroke:none;stroke-width:0.0075;stroke-dasharray:none;stroke-opacity:1"
         d="m 214.45703,393.35547 v -2.5 h 0.0215 0.0215 v 2.5 2.5 h -0.0215 -0.0215 z"
         id="path139" />
      <path
         style="fill:#ffcc00;fill-opacity:1;stroke:none;stroke-width:0.0075;stroke-dasharray:none;stroke-opacity:1"
         d="m 214.45703,387.88672 v -2.96875 h 0.0215 0.0215 v 2.96875 2.96875 h -0.0215 -0.0215 z"
         id="path140" />
      <path
         style="fill:#ffcc00;fill-opacity:1;stroke:none;stroke-width:0.0075;stroke-dasharray:none;stroke-opacity:1"
         d="m 214.45703,382.26172 v -2.65625 h 0.0215 0.0215 v 2.65625 2.65625 h -0.0215 -0.0215 z"
         id="path141" />
      <path
         style="fill:#ffcc00;fill-opacity:1;stroke:none;stroke-width:0.0075;stroke-dasharray:none;stroke-opacity:1"
         d="m 214.45703,376.32422 v -3.28125 h 0.0215 0.0215 v 3.28125 3.28125 h -0.0215 -0.0215 z"
         id="path142" />
      <path
         style="fill:#ffcc00;fill-opacity:1;stroke:none;stroke-width:0.0075;stroke-dasharray:none;stroke-opacity:1"
         d="m 214.45703,370.23047 v -2.8125 h 0.0215 0.0215 v 2.8125 2.8125 h -0.0215 -0.0215 z"
         id="path143" />
      <path
         style="fill:#ffcc00;fill-opacity:1;stroke:none;stroke-width:0.0075;stroke-dasharray:none;stroke-opacity:1"
         d="m 214.45703,364.60547 v -2.8125 h 0.0215 0.0215 v 2.8125 2.8125 h -0.0215 -0.0215 z"
         id="path144" />
      <path
         style="fill:#ffcc00;fill-opacity:1;stroke:none;stroke-width:0.0075;stroke-dasharray:none;stroke-opacity:1"
         d="m 214.45703,358.82422 v -2.96875 h 0.0215 0.0215 v 2.96875 2.96875 h -0.0215 -0.0215 z"
         id="path145" />
      <path
         style="fill:#ffcc00;fill-opacity:1;stroke:none;stroke-width:0.0075;stroke-dasharray:none;stroke-opacity:1"
         d="m 214.45703,352.57422 v -3.28125 h 0.0215 0.0215 v 3.28125 3.28125 h -0.0215 -0.0215 z"
         id="path146" />
      <path
         style="fill:#ffcc00;fill-opacity:1;stroke:none;stroke-width:0.0075;stroke-dasharray:none;stroke-opacity:1"
         d="m 214.45703,348.65625 v -0.63672 h -0.51758 -0.51758 v -0.01 -0.01 h 0.53907 0.53906 v 0.64648 0.64649 h -0.0215 -0.0215 z"
         id="path147" />
      <path
         style="fill:#ffcc00;fill-opacity:1;stroke:none;stroke-width:0.0075;stroke-dasharray:none;stroke-opacity:1"
         d="m 232.54048,318.09277 c 0.001,-0.21323 0.004,-0.63115 0.006,-0.92871 0.009,-1.32153 0.0194,-3.69482 0.0195,-4.47754 l 3e-5,-0.4248 h 0.0586 0.0586 l 1.1e-4,0.0381 c 2.2e-4,0.0802 -0.0823,6.04934 -0.0845,6.11329 l -0.002,0.0674 h -0.0295 -0.0295 z"
         id="path148" />
      <path
         style="fill:#ffcc00;fill-opacity:1;stroke:none;stroke-width:0.0106066;stroke-dasharray:none;stroke-opacity:1"
         d="m 232.56632,311.92607 c 0,-0.18336 0.002,-0.3524 0.004,-0.37565 l 0.004,-0.0423 h 0.0603 0.0603 l -0.003,0.2914 c -0.002,0.16028 -0.005,0.32932 -0.006,0.37565 l -0.003,0.0842 h -0.0574 -0.0574 z"
         id="path149" />
      <path
         style="fill:#ffcc00;fill-opacity:1;stroke:none;stroke-width:0.0106066;stroke-dasharray:none;stroke-opacity:1"
         d="m 222.39061,311.75675 v -5.93307 h 5.08233 5.08233 l -4e-5,0.14778 c -2e-5,0.0813 0.003,1.1059 0.006,2.27694 0.008,2.63916 -0.003,7.27611 -0.0203,9.06991 l -0.004,0.37151 h -5.07337 -5.07338 z"
         id="path150" />
      <path
         style="fill:#ffcc00;fill-opacity:1;stroke:none;stroke-width:0.0106066;stroke-dasharray:none;stroke-opacity:1"
         d="m 232.56883,311.05793 c 0,-0.12153 7.3e-4,-0.17047 0.002,-0.10874 8.9e-4,0.0617 8.9e-4,0.16117 0,0.22097 -8.9e-4,0.0598 -0.002,0.009 -0.002,-0.11223 z"
         id="path151" />
      <path
         style="fill:#ffcc00;fill-opacity:1;stroke:none;stroke-width:0.0106066;stroke-dasharray:none;stroke-opacity:1"
         d="m 232.57082,312.08959 c -9.6e-4,-0.0934 -3.7e-4,-0.2631 0.001,-0.37703 0.003,-0.2332 -0.003,-3.99407 -0.009,-5.14172 l -0.004,-0.74716 h 0.0807 0.0807 l -1e-4,0.97642 c -9e-5,1.02962 -0.007,2.4207 -0.0164,3.32147 -0.003,0.29624 -0.008,0.82698 -0.011,1.17943 -0.003,0.35245 -0.007,0.71228 -0.009,0.79964 l -0.004,0.15882 h -0.054 -0.054 z"
         id="path152" />
      <path
         style="fill:#ffcc00;fill-opacity:1;stroke:none;stroke-width:0.0106066;stroke-dasharray:none;stroke-opacity:1"
         d="m 232.57082,312.10892 c -5.5e-4,-0.0828 -7.5e-4,-0.16793 -4.2e-4,-0.1892 0.003,-0.18825 -6e-5,-3.30816 -0.004,-4.42218 -0.003,-0.7763 -0.005,-1.47049 -0.005,-1.54266 l -1.4e-4,-0.1312 h 0.0801 0.0801 l -9e-5,0.98194 c -9e-5,1.03225 -0.007,2.41531 -0.0164,3.32147 -0.003,0.29624 -0.008,0.82698 -0.011,1.17943 -0.003,0.35245 -0.007,0.71105 -0.009,0.79688 l -0.004,0.15606 h -0.0544 -0.0544 z"
         id="path153" />
      <path
         style="fill:#ffcc00;fill-opacity:1;stroke:none;stroke-width:0.0106066;stroke-dasharray:none;stroke-opacity:1"
         d="m 232.5722,312.10892 c 0.001,-0.55211 -0.006,-5.20665 -0.009,-5.69 l -0.004,-0.59524 h 0.081 0.081 l -9.7e-4,1.16424 c -10e-4,1.2652 -0.006,2.21423 -0.0152,3.13641 -0.003,0.3251 -0.009,0.86952 -0.0114,1.20981 -0.003,0.3403 -0.007,0.68771 -0.009,0.77202 l -0.004,0.1533 h -0.0544 -0.0544 z"
         id="path154" />
      <path
         style="fill:#ffcc00;fill-opacity:1;stroke:none;stroke-width:0.0106066;stroke-dasharray:none;stroke-opacity:1"
         d="m 232.57221,312.10892 c 10e-4,-0.52901 -0.006,-5.09157 -0.009,-5.62923 l -0.004,-0.65601 h 0.081 0.081 l -9.8e-4,1.17253 c -10e-4,1.43135 -0.007,2.58629 -0.0186,3.47615 -0.002,0.12761 -0.005,0.5179 -0.008,0.86731 -0.003,0.34941 -0.007,0.6993 -0.009,0.77754 l -0.004,0.14225 h -0.0544 -0.0544 z"
         id="path155" />
    </g>
  </g>
</svg>
